<svg width="14" height="14" xmlns="http://www.w3.org/2000/svg"><path d="M2.4 4.6A.4.4 0 0 0 2 5v7.6c0 .8.7 1.4 1.4 1.4h7.2c.7 0 1.3-.6 1.3-1.4V5a.4.4 0 0 0-.8 0v7.6a.7.7 0 0 1-.6.7H3.4a.7.7 0 0 1-.6-.7V5a.4.4 0 0 0-.4-.4zm6 0a.4.4 0 0 0-.2.4v5.6a.4.4 0 0 0 .7 0V5a.4.4 0 0 0-.5-.4zm-3 0a.4.4 0 0 0-.3.4v5.6a.4.4 0 0 0 .8 0V5a.4.4 0 0 0-.3-.4zm-5-2a.4.4 0 1 0 0 .7h13.2c.2 0 .4-.2.4-.4a.4.4 0 0 0-.4-.4H11V1.4A1.4 1.4 0 0 0 9.5 0h-5C3.5 0 3 .7 3 1.4v1.2H.5zm9.8 0H3.8V1.4c0-.3.3-.6.7-.6h5c.4 0 .7.2.7.6v1.2z" fill="#989EA6" fill-rule="evenodd"/></svg>