<svg width="16" height="16" xmlns="http://www.w3.org/2000/svg" xmlns:xlink="http://www.w3.org/1999/xlink"><defs><path id="a" d="M0 0v16h16V0H0z"/></defs><g fill="none" fill-rule="evenodd"><mask id="b" fill="#fff"><use xlink:href="#a"/></mask><path d="M8 16a8 8 0 0 1-8-8 8 8 0 0 1 8-8 8 8 0 0 1 8 8 8 8 0 0 1-8 8zM8 1a7 7 0 1 0 0 14A7 7 0 0 0 8 1zM6.6 6.6h-1c0-1 .3-1.7 1-2C6.8 4 7.5 4 8 4c1.6 0 2.3.8 2.4 2 0 .7-.3 1.4-1 2-.7.6-1 1.2-1 2h-1c0-.5 0-1 .2-1.3 0-.2.4-.6 1-1v-.2c.6-.5 1-1 .8-1.4C9.4 5.3 9 5 8 5c-1 0-1.5.6-1.4 1.8zm.8 5.5h1v-1h-1v1z" fill="#969FAB" mask="url(#b)"/></g></svg>