<svg width="14" height="14" xmlns="http://www.w3.org/2000/svg" xmlns:xlink="http://www.w3.org/1999/xlink"><defs><path id="a" d="M0 0v13h13V0H0z"/></defs><g transform="translate(0 1)" fill="none" fill-rule="evenodd"><mask id="b" fill="#fff"><use xlink:href="#a"/></mask><path d="M5.6 8a.6.6 0 0 1-.4-.2c-.5-.5-.7-1.2-.7-2s.2-1.2.7-1.7L8.5.8c.5-.5 1-.7 2-.7s1.2.2 1.7.7c1 1 1 2.7 0 3.8L10 6.7c-.2.2-.5.2-.7 0C9 6.4 9 6 9.3 6l2.2-2.3a1.5 1.5 0 0 0 0-2.2c-.3-.3-.7-.5-1.2-.5a1.4 1.4 0 0 0-1 .5L6 4.8A1.5 1.5 0 0 0 6 7c.2.2.2.5 0 .8h-.4z" fill="#FFF" mask="url(#b)"/><path d="M2.6 13C2 13 1.3 12.6.8 12a2.7 2.7 0 0 1 0-3.8l2.2-2a.5.5 0 0 1 .8 0 .5.5 0 0 1 0 .7L1.6 9.3c-.7.6-.7 1.6 0 2.2a1.7 1.7 0 0 0 2.2 0L7 8c.7-.5.5-1.6 0-2a.5.5 0 0 1 0-1 .5.5 0 0 1 1 0c.4.7.6 1.2.6 2s-.3 1.3-.8 1.8L4.5 12c-.5.7-1.2 1-2 1z" fill="#FFF" mask="url(#b)"/></g></svg>