<svg width="16" height="16" xmlns="http://www.w3.org/2000/svg" xmlns:xlink="http://www.w3.org/1999/xlink"><defs><path id="a" d="M0 0v16h16V0H0z"/></defs><g fill="none" fill-rule="evenodd"><mask id="b" fill="#fff"><use xlink:href="#a"/></mask><path d="M8 16a8 8 0 0 1-8-8 8 8 0 0 1 8-8 8 8 0 0 1 8 8 8 8 0 0 1-8 8zM8 1a7 7 0 1 0 0 14A7 7 0 0 0 8 1z" fill="#969FAB" mask="url(#b)"/><path fill="#969FAB" mask="url(#b)" transform="matrix(1 0 0 -1 0 17.627)" d="M4 10.8l1 .8 3-3.8 3.2 3.8 1-.8L8 6z"/></g></svg>