<svg width="16" height="16" xmlns="http://www.w3.org/2000/svg"><g fill="#969FAB" fill-rule="evenodd"><path d="M2.2 10c-.4 0-.7.4-.7.8v4c0 .4.3.7.7.7s.8-.3.8-.7v-4c0-.4-.4-.8-.8-.8zM6 6.5c-.4 0-.7.4-.7.8v7.5c0 .4.3.7.7.7s.8-.3.8-.7V7.3c0-.4-.4-.8-.8-.8zM9.8 8c-.4 0-.7.4-.7.8v6c0 .4.4.7.8.7s.8-.3.8-.7v-6c0-.4-.4-.8-.8-.8zm3.8-4c-.4 0-.7.4-.7.8v10c0 .4.2.7.6.7s.8-.3.8-.7v-10c0-.4-.3-.8-.8-.8z"/><path d="M16 .2h-.3c0-.2-.2-.2-.3-.2l-2.8.2c-.2 0-.3.2-.4.3V1l.8 1-3.3 2.6-3.8-1L0 8c-.2 0-.3.4 0 .6 0 0 0 .2.3.2h.3l5.3-4 4 1 5.8-5c.2 0 .2-.4 0-.6z"/></g></svg>