<?xml version="1.0" standalone="no"?><!DOCTYPE svg PUBLIC "-//W3C//DTD SVG 1.1//EN" "http://www.w3.org/Graphics/SVG/1.1/DTD/svg11.dtd"><svg t="1502073789497" class="icon" style="" viewBox="0 0 1024 1024" version="1.1" xmlns="http://www.w3.org/2000/svg" p-id="2327" xmlns:xlink="http://www.w3.org/1999/xlink" width="48" height="48"><defs><style type="text/css"></style></defs><path d="M880.234689 590.922491c-3.793396 0-7.497765-0.357134-11.157107-0.892323l0 0.892323L155.040099 590.922491l0-0.892323c-3.659343 0.535189-7.363711 0.892323-11.157107 0.892323-43.132356 0-78.097706-34.965349-78.097706-78.097706s34.965349-78.097706 78.097706-78.097706c3.793396 0 7.497765 0.357134 11.157107 0.892323l0-0.892323L869.077581 434.727079l0 0.892323c3.659343-0.535189 7.363711-0.892323 11.157107-0.892323 43.132356 0 78.097706 34.965349 78.097706 78.097706S923.367045 590.922491 880.234689 590.922491z" p-id="2328" fill="#20A0FF"></path></svg>