<?xml version="1.0" standalone="no"?><!DOCTYPE svg PUBLIC "-//W3C//DTD SVG 1.1//EN" "http://www.w3.org/Graphics/SVG/1.1/DTD/svg11.dtd"><svg t="1501740780041" class="icon" style="" viewBox="0 0 1024 1024" version="1.1" xmlns="http://www.w3.org/2000/svg" p-id="3537" xmlns:xlink="http://www.w3.org/1999/xlink" width="32" height="32"><defs><style type="text/css"></style></defs><path d="M877.568 112.128h-118.784v114.688c0 34.816-28.672 63.488-64 63.488s-64-28.16-64-63.488V112.128H393.216v114.688c0 34.816-28.672 63.488-64 63.488s-64-28.16-64-63.488V112.128H146.432C66.048 112.128 0 177.664 0 257.536v581.632c0 79.872 66.048 145.408 146.432 145.408h731.648c80.384 0 146.432-65.536 146.432-145.408V257.536c-0.512-79.872-66.56-145.408-146.944-145.408z m73.216 727.04c0 39.936-32.768 72.704-73.216 72.704H146.432c-40.448 0-73.216-32.768-73.216-72.704V402.944h877.568v436.224zM328.704 257.536c19.968 0 36.352-16.384 36.352-36.352V75.776c0-19.968-16.384-36.352-36.352-36.352-19.968 0-36.352 16.384-36.352 36.352v145.408c0 19.968 16.384 36.352 36.352 36.352z m366.08 0c19.968 0 36.352-16.384 36.352-36.352V75.776c0-19.968-16.384-36.352-36.352-36.352-19.968 0-36.352 16.384-36.352 36.352v145.408c0 19.968 16.384 36.352 36.352 36.352z m-338.432 355.328v107.008h-61.44v55.296h208.384v92.16h64v-92.16h154.112v-55.296h-154.112v-68.608h124.416v-55.296h-124.416V537.6h141.312V482.304H446.464c5.632-12.288 11.264-24.576 16.384-37.376l-68.096-10.24c-24.064 60.928-58.368 109.568-102.912 145.92 15.36 20.48 28.672 39.424 39.424 55.808 8.704-7.168 16.896-15.36 25.088-23.552z m146.432 106.496H417.792v-68.608h85.504v68.608zM415.232 537.6h88.064v57.856H371.712c15.872-18.432 30.208-37.376 43.52-57.856z" p-id="3538" fill="#515151"></path></svg>