<?xml version="1.0" standalone="no"?><!DOCTYPE svg PUBLIC "-//W3C//DTD SVG 1.1//EN" "http://www.w3.org/Graphics/SVG/1.1/DTD/svg11.dtd"><svg t="1502090891349" class="icon" style="" viewBox="0 0 1024 1024" version="1.1" xmlns="http://www.w3.org/2000/svg" p-id="4541" xmlns:xlink="http://www.w3.org/1999/xlink" width="48" height="48"><defs><style type="text/css"></style></defs><path d="M444.717617 289.592584l0 623.998817c0 18.59245 14.914688 33.664727 33.95637 33.664727l66.652026 0c18.753109 0 33.95637-15.053857 33.95637-33.664727L579.282383 279.206026l199.787232 196.370413c6.64535 6.628978 17.5804 6.460132 24.427342-0.38681l47.1386-47.1386c6.846942-6.846942 7.03216-17.781992 0.38681-24.410969L582.40142 139.598408c-0.944512-2.059915-2.26867-3.997034-3.971451-5.703909L527.024182 82.470293c-4.047176-4.046153-9.398044-5.955642-14.606673-5.703909-4.793166-0.2415-9.729595 1.50733-13.458523 5.227048l-37.402865 37.429471-288.122093 277.226952c-7.266497 7.248078-7.062859 19.168572 0.408299 26.638707l51.405787 51.424206c7.489578 7.471159 19.409049 7.656377 26.638707 0.407276L444.717617 289.592584z" p-id="4542" fill="#20A0FF"></path></svg>