<?xml version="1.0" standalone="no"?><!DOCTYPE svg PUBLIC "-//W3C//DTD SVG 1.1//EN" "http://www.w3.org/Graphics/SVG/1.1/DTD/svg11.dtd"><svg t="1500450811287" class="icon" style="" viewBox="0 0 1024 1024" version="1.1" xmlns="http://www.w3.org/2000/svg" p-id="3238" xmlns:xlink="http://www.w3.org/1999/xlink" width="32" height="32"><defs><style type="text/css"></style></defs><path d="M598.3 76c-36 0-383.8 0-383.8 0-30.1 0-54.5 24.4-54.5 54.5l0 787c0 30.1 24.4 54.5 54.5 54.5l595 0c30.1 0 54.5-24.4 54.5-54.5 0 0 0-531.2 0-573.5 0-22.3-9.3-40.3-40-71.3-49.4-50-125.6-126.1-172-173.4C628.5 75.4 607.2 76 598.3 76zM824 903c0 16-13 29-29 29L229 932c-16 0-29-13-29-29l0-758c0-16 13-29 29-29l341 0c0 0 31.7 4.8 32.7 32.4 0.3 8.5-0.9 79.3-0.9 127.3 0 28.7 14.6 62 54.9 62 36.1 0 68.3 0.6 114.7 0.6 53.7 0 52.7 29.3 52.7 29.3L824.1 903z" p-id="3239" fill="#2c2c2c"></path><path d="M703.2 480.3 314 480.3c-11 0-20-9-20-20l0 0c0-11 9-20 20-20l389.2 0c11 0 20 9 20 20l0 0C723.2 471.4 714.2 480.3 703.2 480.3z" p-id="3240" fill="#2c2c2c"></path><path d="M703.2 613.8 314 613.8c-11 0-20-9-20-20l0 0c0-11 9-20 20-20l389.2 0c11 0 20 9 20 20l0 0C723.2 604.9 714.2 613.8 703.2 613.8z" p-id="3241" fill="#2c2c2c"></path><path d="M703.2 748.3 314 748.3c-11 0-20-9-20-20l0 0c0-11 9-20 20-20l389.2 0c11 0 20 9 20 20l0 0C723.2 739.4 714.2 748.3 703.2 748.3z" p-id="3242" fill="#2c2c2c"></path></svg>