<svg width="16" height="16" xmlns="http://www.w3.org/2000/svg"><path d="M14.4 6.7c-.7 0-1.3.3-1.6 1h-2a7 7 0 0 0-.4-1.3l.7-.7 1 .2a1.5 1.5 0 0 0 1.5-1.6c0-1-.8-1.5-1.6-1.5a1.5 1.5 0 0 0-1.6 1.4c0 .3 0 .5.2.7L10 6c-.5-.3-1-.5-1.6-.6V3c.6 0 1.2-.7 1.2-1.5C9.6.5 9 0 8 0a1.5 1.5 0 0 0-1.4 1.5c0 .7.5 1.3 1 1.5v2c-.5.2-1 .4-1.4.8l-.6-.6c0-.3.3-.5.3-.8C6 3.4 5 3 4.2 3c-1 0-1.7.6-1.7 1.4C2.6 5.4 3.3 6 4 6l1-.2.6.7c-.3.4-.5 1-.5 1.3H3c-.3-.6-.8-1-1.5-1-1 0-1.5.7-1.5 1.5 0 1 .7 1.5 1.5 1.5.7 0 1.4-.6 1.5-1.3h2c0 .6.3 1 .7 1.5l-.7.7-.8-.2A1.5 1.5 0 0 0 2.7 12c0 .8.7 1.5 1.5 1.5A1.5 1.5 0 0 0 5.8 12c0-.3 0-.5-.2-.8l.7-.7c.4.3 1 .5 1.4.6v2c-.6.2-1 .8-1 1.5 0 1 .6 1.5 1.4 1.5a1.5 1.5 0 0 0 1.6-1.5c0-.7-.5-1.3-1.2-1.5v-2c.4 0 1-.2 1.3-.4l.8.8v.7c0 1 .6 1.6 1.4 1.6a1.5 1.5 0 0 0 1.4-1.5c0-.8-.7-1.4-1.5-1.4-.4 0-.7 0-1 .3l-.7-.8c.4-.5.6-1 .7-1.6h2c0 .6.7 1.3 1.5 1.3 1 0 1.5-.8 1.5-1.6 0-1-.7-1.7-1.6-1.7z" fill="#4285F4" fill-rule="evenodd"/></svg>