<svg width="16" height="16" xmlns="http://www.w3.org/2000/svg" xmlns:xlink="http://www.w3.org/1999/xlink"><defs><path id="a" d="M0 16V0h16v16z"/></defs><g fill="none" fill-rule="evenodd"><mask id="b" fill="#fff"><use xlink:href="#a"/></mask><path d="M13 13.2a7.3 7.3 0 0 1-8.7 1c-3-1.5-4.2-5-3.4-8l-.7-.4a8 8 0 0 0 3.7 9c3.2 2 7.2 1.3 9.7-1.2l-.6-.4M1 4.4a.3.3 0 1 0 .6 0 .3.3 0 0 0-.7 0m7-2.2a5.8 5.8 0 1 0 0 11.6A5.8 5.8 0 0 0 8 2.2m0 10.4a4.6 4.6 0 1 1 0-9.2 4.6 4.6 0 0 1 0 9.2M12 1A8 8 0 0 0 1.6 3.3l.6.3a7.3 7.3 0 0 1 12.6 7.2l.5.4c1.6-3.6.2-8-3.3-10m2 11c0 .3 0 .4.2.4h.3a.3.3 0 0 0 .2-.3.3.3 0 0 0-.2-.2.3.3 0 1 0-.5.3" fill="#767D85" mask="url(#b)"/></g></svg>