<?xml version="1.0" standalone="no"?><!DOCTYPE svg PUBLIC "-//W3C//DTD SVG 1.1//EN" "http://www.w3.org/Graphics/SVG/1.1/DTD/svg11.dtd"><svg t="1501741045972" class="icon" style="" viewBox="0 0 1024 1024" version="1.1" xmlns="http://www.w3.org/2000/svg" p-id="6100" xmlns:xlink="http://www.w3.org/1999/xlink" width="32" height="32"><defs><style type="text/css"></style></defs><path d="M877.568 112.128h-118.784v114.688c0 34.816-28.672 63.488-64 63.488s-64-28.16-64-63.488V112.128H393.216v114.688c0 34.816-28.672 63.488-64 63.488s-64-28.16-64-63.488V112.128H146.432C66.048 112.128 0 177.664 0 257.536v581.632c0 79.872 66.048 145.408 146.432 145.408h731.648c80.384 0 146.432-65.536 146.432-145.408V257.536c-0.512-79.872-66.56-145.408-146.944-145.408z m73.216 727.04c0 39.936-32.768 72.704-73.216 72.704H146.432c-40.448 0-73.216-32.768-73.216-72.704V402.944h877.568v436.224z m-256-581.632c19.968 0 36.352-16.384 36.352-36.352V75.776c0-19.968-16.384-36.352-36.352-36.352-19.968 0-36.352 16.384-36.352 36.352v145.408c0 19.968 16.384 36.352 36.352 36.352z m-366.08 0c19.968 0 36.352-16.384 36.352-36.352V75.776c0-19.968-16.384-36.352-36.352-36.352-19.968 0-36.352 16.384-36.352 36.352v145.408c0 19.968 16.384 36.352 36.352 36.352z m82.432 523.776c9.216-16.896 15.36-39.424 18.432-67.584h173.568v27.648c0 18.944-10.24 28.16-30.208 28.16-18.944 0-41.472-1.024-67.072-2.56 6.144 19.456 11.264 39.424 14.848 59.392 39.936 0.512 68.096 0 84.992-1.024 16.896-1.024 30.208-7.168 39.936-18.944 9.728-11.776 14.336-28.672 14.336-51.2v-286.72H375.808v149.504c0 46.08-3.072 79.872-9.216 102.4-6.144 22.528-20.48 45.056-43.52 68.608 16.384 13.312 33.28 27.136 50.176 42.496 15.872-16.896 28.672-33.28 37.888-50.176z m22.016-261.12h169.984v45.056H433.152v-45.056z m0 96.768h169.984v45.056H432.64c0.512-22.528 0.512-37.376 0.512-45.056z" p-id="6101" fill="#20A0FF"></path></svg>